<?xml version="1.0" encoding="UTF-8" standalone="no"?>
<!-- Created with Inkscape (http://www.inkscape.org/) -->

<svg
   version="1.1"
   id="svg1"
   width="17.142857"
   height="17.142857"
   viewBox="0 0 17.142857 17.142857"
   sodipodi:docname="JavaFX.svg"
   inkscape:version="1.4.2 (ebf0e940d0, 2025-05-08)"
   xmlns:inkscape="http://www.inkscape.org/namespaces/inkscape"
   xmlns:sodipodi="http://sodipodi.sourceforge.net/DTD/sodipodi-0.dtd"
   xmlns="http://www.w3.org/2000/svg"
   xmlns:svg="http://www.w3.org/2000/svg">
  <defs
     id="defs1" />
  <sodipodi:namedview
     id="namedview1"
     pagecolor="#ffffff"
     bordercolor="#000000"
     borderopacity="0.25"
     inkscape:showpageshadow="2"
     inkscape:pageopacity="0.0"
     inkscape:pagecheckerboard="0"
     inkscape:deskcolor="#d1d1d1"
     inkscape:zoom="46.725001"
     inkscape:cx="8.6998392"
     inkscape:cy="8.5714283"
     inkscape:window-width="1920"
     inkscape:window-height="1048"
     inkscape:window-x="0"
     inkscape:window-y="0"
     inkscape:window-maximized="1"
     inkscape:current-layer="g3" />
  <g
     inkscape:groupmode="layer"
     inkscape:label="Image"
     id="g1">
    <g
       id="g3"
       transform="translate(-0.14981273,0.02140182)">
      <path
         style="display:inline;fill:#929292;fill-opacity:1"
         d="m 9.9581666,14.76 0.018976,-1.011429 0.5314284,-0.02003 c 0.52874,-0.01993 0.531429,-0.01915 0.531429,0.154285 0,0.165793 -0.01863,0.174313 -0.381086,0.174313 h -0.381085 l 0.02108,0.291429 L 10.32,14.64 l 0.364309,0.02088 c 0.2993,0.01715 0.360366,0.04162 0.342215,0.137143 -0.01679,0.08834 -0.108412,0.121246 -0.381452,0.136994 l -0.359358,0.02073 v 0.407845 c 0,0.390471 -0.0074,0.407845 -0.173262,0.407845 H 9.9391906 Z m 1.3561184,0.949444 c 0,-0.03409 0.108,-0.253055 0.24,-0.486587 0.132,-0.233532 0.24,-0.446215 0.24,-0.472628 0,-0.02641 -0.107299,-0.247164 -0.238442,-0.490556 -0.131144,-0.243392 -0.239144,-0.465673 -0.24,-0.493959 -8.57e-4,-0.02829 0.08457,-0.05143 0.189831,-0.05143 0.163468,0 0.219666,0.05584 0.385213,0.382788 0.106602,0.210533 0.218103,0.357105 0.24778,0.325714 0.02968,-0.03139 0.130776,-0.19593 0.224667,-0.365645 0.127498,-0.230461 0.217835,-0.314246 0.356875,-0.33099 0.102391,-0.01233 0.174464,0.0031 0.160163,0.03429 -0.0143,0.03119 -0.13309,0.26662 -0.263976,0.523182 l -0.237974,0.466479 0.256503,0.46903 c 0.141077,0.257966 0.256503,0.487765 0.256503,0.510664 0,0.0229 -0.08486,0.04156 -0.188571,0.04147 -0.1589,-1.37e-4 -0.219567,-0.05948 -0.38555,-0.377143 -0.108337,-0.207339 -0.216337,-0.376906 -0.239999,-0.376817 -0.02366,9e-5 -0.131663,0.169804 -0.24,0.377143 -0.154653,0.295978 -0.232007,0.37698 -0.36,0.37698 -0.08966,0 -0.163023,-0.02789 -0.163023,-0.06198 z m -7.291428,-0.0523 c -0.025143,-0.02514 -0.045714,-0.0994 -0.045714,-0.165009 0,-0.0883 0.038295,-0.10928 0.1473969,-0.08075 0.2630608,0.06879 0.3326031,-0.138245 0.3326031,-0.990205 v -0.775465 h 0.1714286 0.1714285 v 0.827365 c 0,0.792464 -0.052294,1.056557 -0.2331225,1.177299 -0.09464,0.06319 -0.4827659,0.06802 -0.5440203,0.0068 z m 1.3020563,-0.07968 C 5.1803463,15.41772 5.178899,15.12951 5.3220633,15.010691 c 0.060851,-0.0505 0.2537084,-0.10828 0.4285715,-0.128396 0.2994167,-0.03444 0.3179327,-0.04856 0.3179327,-0.242288 0,-0.195013 -0.014268,-0.205488 -0.2742857,-0.201351 -0.1508571,0.0024 -0.3282857,0.02884 -0.3942857,0.05876 -0.086463,0.0392 -0.12,0.02428 -0.12,-0.05338 0,-0.159103 0.2209434,-0.249749 0.6087466,-0.249749 0.4793817,0 0.5569677,0.126302 0.5569677,0.906686 0,0.547448 -0.011887,0.601886 -0.1314286,0.601886 -0.072286,0 -0.1431892,-0.03528 -0.1575634,-0.07841 -0.019608,-0.05883 -0.062719,-0.05883 -0.1726348,0 -0.2186835,0.117036 -0.5308705,0.09478 -0.659174,-0.04699 z m 0.6956579,-0.1626 c 0.045257,-0.04526 0.082286,-0.153257 0.082286,-0.24 0,-0.128669 -0.036983,-0.157715 -0.2008163,-0.157715 -0.2703996,0 -0.4398992,0.170685 -0.3452065,0.34762 0.079231,0.148045 0.3378498,0.175982 0.4637371,0.05009 z m 1.090013,-0.0034 c -0.1119897,-0.302097 -0.3905844,-1.15388 -0.3905844,-1.194218 0,-0.01263 0.072613,-0.02296 0.1613621,-0.02296 0.1423727,0 0.183483,0.06944 0.3493328,0.590096 0.1033839,0.324553 0.2102983,0.563696 0.2375877,0.531429 0.027289,-0.03227 0.1223794,-0.29781 0.2113112,-0.590096 0.1403566,-0.4613 0.1824393,-0.531429 0.3188981,-0.531429 0.094306,0 0.1465081,0.03429 0.1304715,0.08571 -0.4364337,1.399373 -0.4477442,1.422857 -0.6853021,1.422857 -0.2020775,0 -0.2360497,-0.02972 -0.3330769,-0.291429 z m 1.3751298,0.217365 c -0.1617481,-0.09421 -0.1584093,-0.487064 0.0054,-0.635309 0.06897,-0.06242 0.2309696,-0.113957 0.36,-0.114534 0.2928174,-0.0013 0.4265687,-0.08239 0.3956333,-0.239817 -0.041199,-0.209664 -0.226914,-0.277335 -0.5352505,-0.195036 -0.2217198,0.05918 -0.2772108,0.05579 -0.2772108,-0.01693 0,-0.137556 0.231059,-0.233007 0.5612063,-0.231836 0.5003641,0.0018 0.604508,0.166206 0.604508,0.954442 0,0.49935 -0.012768,0.55308 -0.1314286,0.55308 -0.072286,0 -0.1431892,-0.03528 -0.1575634,-0.07841 -0.019608,-0.05883 -0.062719,-0.05883 -0.1726348,0 -0.1796873,0.09617 -0.4914449,0.09824 -0.6526589,0.0043 z m 0.6387937,-0.202635 c 0.076059,-0.0407 0.1326349,-0.143078 0.1326349,-0.24 0,-0.135724 -0.034655,-0.169016 -0.1759366,-0.169016 -0.3572124,0 -0.5466842,0.209951 -0.3589206,0.397715 0.1010207,0.10102 0.2279184,0.104586 0.4022223,0.0113 z M 4.8223391,12.721072 C 4.7424138,12.66509 4.6445816,12.526233 4.6049343,12.4125 l -0.072086,-0.206786 h 4.0078614 c 4.4250233,0 4.2439433,-0.01982 3.8074213,0.416703 l -0.200439,0.20044 H 8.5576749 c -3.0633423,0 -3.6113361,-0.01493 -3.7353358,-0.101785 z m 2.103375,-0.858215 c -0.075429,-0.07543 -0.1371429,-0.187391 -0.1371429,-0.248805 0,-0.06141 -0.1928571,-0.317294 -0.4285714,-0.568623 C 6.1228678,10.792589 5.8344554,10.390671 5.7143371,10.145663 5.4591036,9.6250575 5.2799998,8.7607093 5.2799998,8.0495677 V 7.5428569 h 3.1199999 c 2.0342853,0 3.1200003,0.023862 3.1200003,0.068571 0,0.037714 0.0776,0.068572 0.172435,0.068572 0.09952,0 0.276961,0.095791 0.41962,0.2265279 0.228766,0.2096481 0.249739,0.2622138 0.281451,0.7054354 0.02832,0.3958288 0.0074,0.5414288 -0.120776,0.8393121 -0.215916,0.50191 -0.614602,0.8344387 -1.000452,0.8344387 -0.235096,0 -0.300378,0.02763 -0.336864,0.142588 -0.02489,0.07842 -0.238806,0.348423 -0.475367,0.6 -0.236561,0.251576 -0.454195,0.534436 -0.4836292,0.628577 -0.099928,0.3196 -0.188825,0.338619 -1.5935609,0.34094 -1.2301737,0.002 -1.3293326,-0.0072 -1.4571428,-0.134962 z M 11.708883,9.6454273 c 0.372711,-0.3959023 0.475592,-1.0452989 0.217568,-1.373323 -0.206077,-0.2619846 -0.4058,-0.2413788 -0.408844,0.042181 -0.0024,0.2197288 -0.143747,1.0771571 -0.236664,1.4352099 -0.04143,0.1596555 -0.02987,0.1791216 0.08805,0.1482848 0.07466,-0.019523 0.227609,-0.1330819 0.339893,-0.2523528 z M 7.8201732,5.7182344 C 7.8169873,5.2057758 7.8362965,5.2566878 7.1858448,4.0457142 7.0099431,3.7182304 6.9871727,3.6143977 7.0129122,3.2571428 c 0.016303,-0.2262858 0.095352,-0.5502857 0.1756633,-0.72 l 0.1460207,-0.3085714 -0.03864,0.3113208 c -0.067798,0.5462425 0.08705,1.1381316 0.4729868,1.8079426 0.299313,0.5194718 0.3515917,0.6628688 0.3499903,0.96 -0.0012,0.2229739 -0.05502,0.4485086 -0.1488062,0.6235936 L 7.8232038,6.2057141 Z M 9.0849691,5.5885713 C 9.3238158,4.8766489 9.2735315,4.2281738 8.9203042,3.4650247 8.3532104,2.2398157 8.3608639,1.6906702 8.9590285,0.68652779 9.0940927,0.45979464 9.2128127,0.27428571 9.2228507,0.27428571 c 0.010038,0 -0.031427,0.13114285 -0.092145,0.29142856 C 9.0519848,0.77352535 9.0198554,1.0932393 9.0187262,1.6799999 l -0.00158,0.8228572 0.3024891,0.6857142 C 9.6757695,3.9959018 9.7486734,4.5053682 9.5726414,4.9566506 9.4569256,5.2533043 8.9978943,5.8481121 9.0849691,5.5885713 Z"
         id="path4" />
      <path
         style="display:inline;fill:#868686;fill-opacity:1"
         d="m 9.9581666,14.76 0.018976,-1.011429 0.5314284,-0.02003 c 0.52874,-0.01993 0.531429,-0.01915 0.531429,0.154285 0,0.165575 -0.01891,0.174313 -0.377143,0.174313 h -0.377143 v 0.308572 0.308571 h 0.342857 c 0.297143,0 0.342857,0.01829 0.342857,0.137143 0,0.118857 -0.04571,0.137143 -0.342857,0.137143 H 10.285714 V 15.36 c 0,0.394303 -0.0072,0.411428 -0.173262,0.411428 H 9.9391906 Z m 1.3561184,0.983451 c 0,-0.01539 0.108,-0.227942 0.24,-0.472342 0.132,-0.2444 0.24,-0.491132 0.24,-0.548292 0,-0.05716 -0.108,-0.295 -0.24,-0.528532 -0.132,-0.233532 -0.24,-0.437067 -0.24,-0.452301 0,-0.01523 0.0742,-0.0277 0.164883,-0.0277 0.128488,0 0.212205,0.08385 0.379271,0.379875 0.117913,0.208931 0.244874,0.361033 0.282135,0.338004 0.03726,-0.02303 0.144824,-0.193972 0.239028,-0.379874 0.137822,-0.271979 0.205479,-0.338005 0.346356,-0.338005 h 0.175076 l -0.281537,0.510021 -0.281538,0.51002 0.281277,0.518551 0.281276,0.518551 -0.193113,-0.0019 c -0.167258,-0.0016 -0.219883,-0.05672 -0.39305,-0.411429 -0.109966,-0.22525 -0.217966,-0.409038 -0.24,-0.408418 -0.02203,6.21e-4 -0.13158,0.185763 -0.243433,0.411429 -0.159725,0.322247 -0.236983,0.4103 -0.36,0.4103 -0.08615,0 -0.156631,-0.01259 -0.156631,-0.02798 z M 7.8201732,5.7117977 C 7.8168812,5.1752805 7.7674355,5.0197574 7.4268271,4.4745943 6.9681477,3.7404519 6.9073319,3.4200734 7.1070543,2.7900272 7.2602548,2.3067395 7.3072601,2.2751557 7.2793199,2.6742785 7.2430186,3.1928392 7.520814,4.2514284 7.6931962,4.2514284 c 0.030456,0 0.055375,0.046286 0.055375,0.1028572 0,0.056571 0.023143,0.1029728 0.051429,0.1031141 0.098705,4.934e-4 0.3230152,0.65334 0.3179764,0.9254573 -0.00279,0.1508571 -0.07026,0.3977142 -0.1499257,0.5485714 L 7.8232038,6.2057141 Z M 9.2044948,5.1599998 C 9.307082,4.5253465 9.1736164,3.87312 8.7824759,3.0976561 8.7506286,3.0345166 8.6824002,2.8933285 8.6308572,2.7839047 8.509595,2.52647 8.5037122,1.4802875 8.6228569,1.3611428 8.6699997,1.314 8.7085712,1.2352232 8.7085712,1.1860833 c 0,-0.04914 0.094876,-0.23582552 0.2108353,-0.41485709 C 9.0989098,0.4940883 9.122504,0.47628528 9.0781738,0.65142855 9.0495363,0.7645714 9.024089,1.2428571 9.0216241,1.7142857 9.0172835,2.5444793 9.0241678,2.5861713 9.2405859,3.0403364 9.7438453,4.0964531 9.7884005,4.632477 9.4222957,5.2264038 9.3126043,5.4043546 9.2043854,5.550926 9.1818091,5.5521181 9.1592329,5.5533102 9.1694414,5.376857 9.2044948,5.1599998 Z"
         id="path3" />
    </g>
  </g>
</svg>
